<svg xmlns="http://www.w3.org/2000/svg" viewBox="0 0 261.4985 67.8742">
  <g id="full-rgb">
    <g id="logoMark">
      <rect id="logoMark_PathItem_" data-name="logoMark &lt;PathItem&gt;" x="10.0051" width="7.8432" height="7.8405" style="fill: #fd4468"/>
      <rect id="logoMark_PathItem_2" data-name="logoMark &lt;PathItem&gt;" x="20.0103" width="7.8432" height="7.8405" style="fill: #fd4468"/>
      <rect id="logoMark_PathItem_3" data-name="logoMark &lt;PathItem&gt;" x="30.0156" width="7.8432" height="7.8405" style="fill: #fd4468"/>
      <rect id="logoMark_PathItem_4" data-name="logoMark &lt;PathItem&gt;" x="40.0208" width="7.8432" height="7.8405" style="fill: #fd4468"/>
      <rect id="logoMark_PathItem_5" data-name="logoMark &lt;PathItem&gt;" x="50.026" width="7.8432" height="7.8405" style="fill: #fd4468"/>
      <rect id="logoMark_PathItem_6" data-name="logoMark &lt;PathItem&gt;" width="7.8429" height="7.8408" style="fill: #fd4468"/>
      <rect id="logoMark_PathItem_7" data-name="logoMark &lt;PathItem&gt;" y="20.025" width="7.8429" height="7.8408" style="fill: #fd4468"/>
      <rect id="logoMark_PathItem_8" data-name="logoMark &lt;PathItem&gt;" y="30.0271" width="7.8429" height="7.8408" style="fill: #fd4468"/>
      <rect id="logoMark_PathItem_9" data-name="logoMark &lt;PathItem&gt;" y="40.0292" width="7.8429" height="7.8408" style="fill: #fd4468"/>
      <rect id="logoMark_PathItem_10" data-name="logoMark &lt;PathItem&gt;" y="50.0314" width="7.8429" height="7.8408" style="fill: #fd4468"/>
      <rect id="logoMark_PathItem_11" data-name="logoMark &lt;PathItem&gt;" y="60.0335" width="7.8429" height="7.8408" style="fill: #fd4468"/>
      <rect id="logoMark_PathItem_12" data-name="logoMark &lt;PathItem&gt;" x="60.0313" width="7.8429" height="7.8408" style="fill: #fd4468"/>
      <rect id="logoMark_PathItem_13" data-name="logoMark &lt;PathItem&gt;" x="60.0313" y="20.025" width="7.8429" height="7.8408" style="fill: #fd4468"/>
      <rect id="logoMark_PathItem_14" data-name="logoMark &lt;PathItem&gt;" x="60.0313" y="30.0271" width="7.8429" height="7.8408" style="fill: #fd4468"/>
      <rect id="logoMark_PathItem_15" data-name="logoMark &lt;PathItem&gt;" x="60.0313" y="40.0292" width="7.8429" height="7.8408" style="fill: #fd4468"/>
      <rect id="logoMark_PathItem_16" data-name="logoMark &lt;PathItem&gt;" x="60.0313" y="50.0314" width="7.8429" height="7.8408" style="fill: #fd4468"/>
      <rect id="logoMark_PathItem_17" data-name="logoMark &lt;PathItem&gt;" x="60.0313" y="60.0335" width="7.8429" height="7.8408" style="fill: #fd4468"/>
      <rect id="logoMark_PathItem_18" data-name="logoMark &lt;PathItem&gt;" x="20.0103" y="10.0228" width="7.8432" height="7.8405" style="fill: #fd4468"/>
      <rect id="logoMark_PathItem_19" data-name="logoMark &lt;PathItem&gt;" x="30.0156" y="10.0228" width="7.8432" height="7.8405" style="fill: #fd4468"/>
      <rect id="logoMark_PathItem_20" data-name="logoMark &lt;PathItem&gt;" x="40.0208" y="10.0228" width="7.8432" height="7.8405" style="fill: #fd4468"/>
      <rect id="logoMark_PathItem_21" data-name="logoMark &lt;PathItem&gt;" y="10.0228" width="7.8429" height="7.8408" style="fill: #fd4468"/>
      <rect id="logoMark_PathItem_22" data-name="logoMark &lt;PathItem&gt;" x="60.0313" y="10.0228" width="7.8429" height="7.8408" style="fill: #fd4468"/>
      <rect id="logoMark_PathItem_23" data-name="logoMark &lt;PathItem&gt;" x="30.0156" y="20.025" width="7.8432" height="7.8405" style="fill: #fd4468"/>
      <rect id="logoMark_PathItem_24" data-name="logoMark &lt;PathItem&gt;" x="20.0103" y="40.0292" width="7.8432" height="7.8405" style="fill: #fd4468"/>
      <rect id="logoMark_PathItem_25" data-name="logoMark &lt;PathItem&gt;" x="40.0208" y="40.0292" width="7.8432" height="7.8405" style="fill: #fd4468"/>
      <rect id="logoMark_PathItem_26" data-name="logoMark &lt;PathItem&gt;" x="20.0103" y="50.0314" width="7.8432" height="7.8405" style="fill: #fd4468"/>
      <rect id="logoMark_PathItem_27" data-name="logoMark &lt;PathItem&gt;" x="30.0156" y="50.0314" width="7.8432" height="7.8405" style="fill: #fd4468"/>
      <rect id="logoMark_PathItem_28" data-name="logoMark &lt;PathItem&gt;" x="40.0208" y="50.0314" width="7.8432" height="7.8405" style="fill: #fd4468"/>
      <rect id="logoMark_PathItem_29" data-name="logoMark &lt;PathItem&gt;" x="10.0051" y="60.0335" width="7.8432" height="7.8405" style="fill: #fd4468"/>
      <rect id="logoMark_PathItem_30" data-name="logoMark &lt;PathItem&gt;" x="20.0103" y="60.0335" width="7.8432" height="7.8405" style="fill: #fd4468"/>
      <rect id="logoMark_PathItem_31" data-name="logoMark &lt;PathItem&gt;" x="30.0156" y="60.0335" width="7.8432" height="7.8405" style="fill: #fd4468"/>
      <rect id="logoMark_PathItem_32" data-name="logoMark &lt;PathItem&gt;" x="40.0208" y="60.0335" width="7.8432" height="7.8405" style="fill: #fd4468"/>
      <rect id="logoMark_PathItem_33" data-name="logoMark &lt;PathItem&gt;" x="50.026" y="60.0335" width="7.8432" height="7.8405" style="fill: #fd4468"/>
    </g>
    <g id="type">
      <path id="type_CompoundPathItem_" data-name="type &lt;CompoundPathItem&gt;" d="M81.8232,51.0872v1.304h1.4347V53.63H81.8232v2.652a.3371.3371,0,0,0,.0109.12.2273.2273,0,0,0,.0436.0652.5815.5815,0,0,0,.0977.0759.1486.1486,0,0,0,.12.0438h1.2608v1.2389c-.0762.0107-.2282.0219-.4782.0326-.25.0218-.5326.0326-.8369.0326a1.24,1.24,0,0,1-.5761-.1085,2.043,2.043,0,0,1-.4021-.2719l-.2935-.2607a.9272.9272,0,0,1-.2607-.4023,1.6945,1.6945,0,0,1-.0761-.5652V53.63h-.7934V52.3912h.7934v-1.304Z" style="fill: #060623"/>
      <path id="type_CompoundPathItem_2" data-name="type &lt;CompoundPathItem&gt;" d="M87.7463,57.8255V54.0431a.3236.3236,0,0,0-.413-.413H86.16a.3679.3679,0,0,0-.2065.0871,3.2,3.2,0,0,0-.3371.3045v3.8038H84.2249V50.3264H85.616V52.739l.12-.12c.0542-.0433.1087-.0866.1739-.13a1.397,1.397,0,0,1,.2174-.12.5662.5662,0,0,1,.2281-.0433h1.076a1.777,1.777,0,0,1,1.2934.4129,1.8229,1.8229,0,0,1,.4129,1.3041v3.7824Z" style="fill: #060623"/>
      <path id="type_CompoundPathItem_3" data-name="type &lt;CompoundPathItem&gt;" d="M91.7782,55.9562a1.2207,1.2207,0,0,0,.0326.3152.3743.3743,0,0,0,.13.2062.4044.4044,0,0,0,.25.0978,2.1764,2.1764,0,0,0,.4129.0326h.7608c.4348,0,.7933-.0107,1.0759-.0214a5.9,5.9,0,0,0,.7066-.0652V57.75c-.2826.0326-.5653.0652-.8586.0978a8.39,8.39,0,0,1-.9239.0433H92.3215a1.6562,1.6562,0,0,1-1.9344-1.9345V54.2605a1.6464,1.6464,0,0,1,1.9344-1.9344h1.0434a2.1021,2.1021,0,0,1,1.4889.4455,2.0516,2.0516,0,0,1,.4565,1.4889v1.25c-.0326.0107-.0868.0326-.1413.0545a1.212,1.212,0,0,1-.2607.054,3.5615,3.5615,0,0,1-.4349.0545c-.1846.0107-.402.0219-.6629.0219H91.7782Zm0-1.5h2.141v-.1956a1.2561,1.2561,0,0,0-.0869-.554c-.0651-.0978-.2174-.1415-.4674-.1415h-.9456c-.2607,0-.4346.0437-.5107.1415a.86.86,0,0,0-.13.554Z" style="fill: #060623"/>
      <path id="type_CompoundPathItem_4" data-name="type &lt;CompoundPathItem&gt;" d="M103.8088,55.9455a2.102,2.102,0,0,1-.4456,1.4889,2.0532,2.0532,0,0,1-1.4889.4563h-.9021a.583.583,0,0,1-.2281-.0545,1.3608,1.3608,0,0,1-.2174-.1085,1.08,1.08,0,0,1-.1739-.1415,1.2693,1.2693,0,0,1-.12-.1085V59.89H98.842V52.3912h1.2607v.5c.12-.12.25-.25.3914-.38a.6915.6915,0,0,1,.4781-.1848h.9021a2.051,2.051,0,0,1,1.4889.4567,2.1123,2.1123,0,0,1,.4456,1.5Zm-3.5757.2495c.0652.0764.1523.1523.25.25a.4147.4147,0,0,0,.2936.1416h1a.7577.7577,0,0,0,.5217-.13.7715.7715,0,0,0,.1194-.5107V54.2824a.8354.8354,0,0,0-.1194-.5107.6977.6977,0,0,0-.5217-.1416h-1a.3408.3408,0,0,0-.261.13c-.0868.0982-.1848.196-.2826.2938Z" style="fill: #060623"/>
      <path id="type_CompoundPathItem_5" data-name="type &lt;CompoundPathItem&gt;" d="M106.45,52.3912v3.7824a.337.337,0,0,0,.413.413h1.1739a.35.35,0,0,0,.2172-.0978,3.3536,3.3536,0,0,0,.3262-.3045V52.3912h1.3911v5.4343h-1.25v-.4563c-.0543.0433-.1087.0978-.1739.1518q-.1141.0817-.2282.1634a1.3939,1.3939,0,0,1-.2393.1411.53.53,0,0,1-.239.0652h-1.076a1.7319,1.7319,0,0,1-1.2934-.4237,1.777,1.777,0,0,1-.4129-1.2934V52.3912Z" style="fill: #060623"/>
      <path id="type_CompoundPathItem_6" data-name="type &lt;CompoundPathItem&gt;" d="M116.2416,55.9455a2.1016,2.1016,0,0,1-.4456,1.4889,2.0532,2.0532,0,0,1-1.4889.4563h-1.2389a2.8538,2.8538,0,0,1-.5326-.0545.7725.7725,0,0,1-.424-.1956l-.5107-.5a1.1983,1.1983,0,0,1-.3261-.8911V50.3264h1.3911V52.739q.0978-.0978.2936-.2607a.736.736,0,0,1,.4455-.1522h.9021a2.051,2.051,0,0,1,1.4889.4567,2.1,2.1,0,0,1,.4456,1.4889Zm-3.5757.4344.1087.1089a.2966.2966,0,0,0,.0978.0759.43.43,0,0,0,.1413.0219h1.1956a.6977.6977,0,0,0,.5217-.1416.8352.8352,0,0,0,.1194-.5107V54.2717a.5038.5038,0,0,0-.6411-.6416h-1a.4464.4464,0,0,0-.2936.13c-.0977.0871-.1739.1634-.25.2393Z" style="fill: #060623"/>
      <path id="type_CompoundPathItem_7" data-name="type &lt;CompoundPathItem&gt;" d="M117.4912,57.8255V50.3264h1.3911v7.4991Z" style="fill: #060623"/>
      <path id="type_CompoundPathItem_8" data-name="type &lt;CompoundPathItem&gt;" d="M120.1862,51.7827V50.3264h1.3911v1.4563Zm0,6.0428V52.3912h1.3911v5.4343Z" style="fill: #060623"/>
      <path id="type_CompoundPathItem_9" data-name="type &lt;CompoundPathItem&gt;" d="M124.7617,57.8907a2.0064,2.0064,0,0,1-1.478-.4563,2.0516,2.0516,0,0,1-.4565-1.4889V54.2717a2.05,2.05,0,0,1,.4565-1.4889,2.0043,2.0043,0,0,1,1.478-.4567h.75a6.8432,6.8432,0,0,1,.815.0544c.2717.0326.5107.0759.7391.1085v1.2282c-.12-.0107-.3152-.0326-.5762-.0545q-.4074-.0321-.9779-.0326h-.6523a.7884.7884,0,0,0-.5217.12.8319.8319,0,0,0-.1194.5219v1.6738a.7733.7733,0,0,0,.1194.5107.72.72,0,0,0,.5217.13h.6523q.5706,0,.9779-.0326c.261-.0219.4565-.0438.5762-.0545v1.2282c-.2284.0326-.4674.0759-.7391.1085a6.8433,6.8433,0,0,1-.815.0545Z" style="fill: #060623"/>
      <path id="type_CompoundPathItem_10" data-name="type &lt;CompoundPathItem&gt;" d="M131.7712,55.9562a1.2119,1.2119,0,0,0,.0326.3152.3741.3741,0,0,0,.13.2062.4047.4047,0,0,0,.25.0978,2.1783,2.1783,0,0,0,.413.0326h.7608c.4348,0,.7933-.0107,1.0759-.0214a5.896,5.896,0,0,0,.7065-.0652V57.75c-.2826.0326-.5652.0652-.8585.0978a8.39,8.39,0,0,1-.9239.0433h-1.0434a1.6562,1.6562,0,0,1-1.9345-1.9345V54.2605a1.6465,1.6465,0,0,1,1.9345-1.9344h1.0434a2.102,2.102,0,0,1,1.4889.4455,2.0516,2.0516,0,0,1,.4565,1.4889v1.25c-.0326.0107-.0868.0326-.1413.0545a1.212,1.212,0,0,1-.2607.054,3.5615,3.5615,0,0,1-.4349.0545c-.1846.0107-.402.0219-.663.0219h-2.0322Zm0-1.5h2.1409v-.1956a1.2579,1.2579,0,0,0-.0868-.554c-.0652-.0978-.2174-.1415-.4674-.1415h-.9456c-.2608,0-.4346.0437-.5108.1415a.8606.8606,0,0,0-.13.554Z" style="fill: #060623"/>
      <path id="type_CompoundPathItem_11" data-name="type &lt;CompoundPathItem&gt;" d="M136.4987,54.2717a2.05,2.05,0,0,1,.4565-1.4889,2.0041,2.0041,0,0,1,1.4779-.4567h.9021a.6187.6187,0,0,1,.2391.0433,1.2844,1.2844,0,0,1,.2065.12c.0654.0438.12.0871.1738.13l.12.12V50.3264h1.3911v7.4991h-1.2607v-.5c-.12.12-.25.25-.38.37a.7.7,0,0,1-.4891.1956h-.9021a2.0063,2.0063,0,0,1-1.4779-.4563,2.0638,2.0638,0,0,1-.4565-1.5Zm3.5756-.25c-.0652-.0764-.1522-.1522-.25-.25a.4146.4146,0,0,0-.2933-.1416h-1a.772.772,0,0,0-.5107.12.7558.7558,0,0,0-.13.5219v1.6626a.76.76,0,0,0,.13.5107c.0761.0978.25.1416.5107.1416h1a.356.356,0,0,0,.2716-.1416c.0762-.0866.1739-.1843.2717-.2826Z" style="fill: #060623"/>
      <path id="type_CompoundPathItem_12" data-name="type &lt;CompoundPathItem&gt;" d="M147.8665,53.3694H147.16a1.8661,1.8661,0,0,1,.2391.2174.6563.6563,0,0,1,.1413.4563v.6416a1.5867,1.5867,0,0,1-.402,1.2389,1.8768,1.8768,0,0,1-1.2934.37H144.508a.2092.2092,0,0,0-.13.0433,2.3753,2.3753,0,0,0-.2064.141c-.0326.0219-.0436.0764-.0436.1523s.0326.1089.1087.1089h2.3368a4.993,4.993,0,0,1,.63.0326.971.971,0,0,1,.402.163.6492.6492,0,0,1,.2065.3477,2.8734,2.8734,0,0,1,.0545.5978v.4237a.9169.9169,0,0,1-.0762.38,1.2729,1.2729,0,0,1-.2826.3916l-.5217.5107a1.1984,1.1984,0,0,1-.402.2714,1.5034,1.5034,0,0,1-.5871.0978h-1.3476a8.3621,8.3621,0,0,1-.9237-.0433q-.44-.0489-.8478-.0978V58.6081c.1958.0214.4348.0433.7281.054.2936.0219.674.0326,1.1521.0326h1.2282a.1732.1732,0,0,0,.13-.0433c.0326-.0326.0977-.0871.1955-.1848a1.673,1.673,0,0,0,.1632-.1737.1451.1451,0,0,0,.0326-.087V57.934c0-.0326-.0109-.0433-.0435-.0433h-2.4888a1.3813,1.3813,0,0,1-.9349-.2389,1.0041,1.0041,0,0,1-.2716-.7938.9231.9231,0,0,1,.0435-.3152.58.58,0,0,1,.1087-.217c.0543-.0544.1087-.1089.1739-.1634a1.6964,1.6964,0,0,1,.2065-.1518l.2065-.1415-.2065-.1629a1.3307,1.3307,0,0,1-.3913-.4563,1.4126,1.4126,0,0,1-.1413-.6956v-.5112a1.8229,1.8229,0,0,1,.4129-1.3041,1.7489,1.7489,0,0,1,1.2827-.4129h1.38c.4346,0,.8369.0107,1.1954.0218s.63.0326.8262.054Zm-1.6847.6737a.506.506,0,0,0-.0978-.3585.5194.5194,0,0,0-.3694-.0978h-1.1195a.52.52,0,0,0-.37.0978.506.506,0,0,0-.0978.3585v.6416a.493.493,0,0,0,.0978.3478.47.47,0,0,0,.37.1084h1.1195a.47.47,0,0,0,.3694-.1084.493.493,0,0,0,.0978-.3478Z" style="fill: #060623"/>
      <path id="type_CompoundPathItem_13" data-name="type &lt;CompoundPathItem&gt;" d="M150.29,55.9562a1.2207,1.2207,0,0,0,.0326.3152.3747.3747,0,0,0,.13.2062.4047.4047,0,0,0,.25.0978,2.1764,2.1764,0,0,0,.4129.0326h.7608c.4348,0,.7933-.0107,1.0759-.0214a5.9,5.9,0,0,0,.7066-.0652V57.75c-.2827.0326-.5653.0652-.8586.0978a8.39,8.39,0,0,1-.9239.0433h-1.0434a1.6562,1.6562,0,0,1-1.9345-1.9345V54.2605a1.6465,1.6465,0,0,1,1.9345-1.9344h1.0434a2.1023,2.1023,0,0,1,1.4889.4455,2.0516,2.0516,0,0,1,.4565,1.4889v1.25c-.0326.0107-.0868.0326-.1413.0545a1.212,1.212,0,0,1-.2607.054,3.5615,3.5615,0,0,1-.4349.0545c-.1846.0107-.402.0219-.663.0219H150.29Zm0-1.5h2.141v-.1956a1.2561,1.2561,0,0,0-.0869-.554c-.0652-.0978-.2174-.1415-.4674-.1415h-.9456c-.2607,0-.4346.0437-.5107.1415a.86.86,0,0,0-.13.554Z" style="fill: #060623"/>
      <path id="type_CompoundPathItem_14" data-name="type &lt;CompoundPathItem&gt;" d="M159.2338,57.8907a2.0065,2.0065,0,0,1-1.478-.4563,2.0516,2.0516,0,0,1-.4565-1.4889V54.2717a2.05,2.05,0,0,1,.4565-1.4889,2.0044,2.0044,0,0,1,1.478-.4567h.75a6.8418,6.8418,0,0,1,.815.0544c.2717.0326.511.0759.7391.1085v1.2282c-.12-.0107-.3152-.0326-.5759-.0545q-.4078-.0321-.9782-.0326h-.6522a.788.788,0,0,0-.5217.12.8312.8312,0,0,0-.1194.5219v1.6738a.7727.7727,0,0,0,.1194.5107.72.72,0,0,0,.5217.13h.6522q.5706,0,.9782-.0326c.2607-.0219.4563-.0438.5759-.0545v1.2282c-.2281.0326-.4674.0759-.7391.1085a6.8419,6.8419,0,0,1-.815.0545Z" style="fill: #060623"/>
      <path id="type_CompoundPathItem_15" data-name="type &lt;CompoundPathItem&gt;" d="M162.6244,57.8255V50.3264h1.3911v7.4991Z" style="fill: #060623"/>
      <path id="type_CompoundPathItem_16" data-name="type &lt;CompoundPathItem&gt;" d="M170.2319,55.9455a2.103,2.103,0,0,1-.4455,1.4889,2.0533,2.0533,0,0,1-1.489.4563H167.2a2.0065,2.0065,0,0,1-1.478-.4563,2.0516,2.0516,0,0,1-.4565-1.4889V54.2717a2.05,2.05,0,0,1,.4565-1.4889,2.0044,2.0044,0,0,1,1.478-.4567h1.0978a2.0511,2.0511,0,0,1,1.489.4567,2.1013,2.1013,0,0,1,.4455,1.4889Zm-1.3911-1.6738a.504.504,0,0,0-.6414-.6416h-.902a.7725.7725,0,0,0-.5108.12.7564.7564,0,0,0-.13.5219v1.6738a.5165.5165,0,0,0,.6411.6411h.902a.7566.7566,0,0,0,.5217-.13.7712.7712,0,0,0,.12-.5107Z" style="fill: #060623"/>
      <path id="type_CompoundPathItem_17" data-name="type &lt;CompoundPathItem&gt;" d="M172.8727,52.3912v3.7824a.3369.3369,0,0,0,.4129.413h1.174a.35.35,0,0,0,.2172-.0978,3.3671,3.3671,0,0,0,.3261-.3045V52.3912h1.3912v5.4343h-1.25v-.4563c-.0542.0433-.1087.0978-.1739.1518q-.1141.0817-.2281.1634a1.3977,1.3977,0,0,1-.2393.1411.53.53,0,0,1-.2391.0652h-1.0759a1.7319,1.7319,0,0,1-1.2934-.4237,1.7765,1.7765,0,0,1-.413-1.2934V52.3912Z" style="fill: #060623"/>
      <path id="type_CompoundPathItem_18" data-name="type &lt;CompoundPathItem&gt;" d="M177.6435,54.2717a2.05,2.05,0,0,1,.4565-1.4889,2.0041,2.0041,0,0,1,1.4779-.4567h.9021a.6187.6187,0,0,1,.2391.0433,1.2844,1.2844,0,0,1,.2065.12c.0654.0438.12.0871.1739.13l.12.12V50.3264H182.61v7.4991H181.35v-.5c-.12.12-.25.25-.38.37a.7.7,0,0,1-.4891.1956h-.9021a2.0063,2.0063,0,0,1-1.4779-.4563,2.0638,2.0638,0,0,1-.4565-1.5Zm3.5756-.25c-.0652-.0764-.1522-.1522-.25-.25a.4146.4146,0,0,0-.2933-.1416h-1a.772.772,0,0,0-.5107.12.7558.7558,0,0,0-.13.5219v1.6626a.76.76,0,0,0,.13.5107c.0761.0978.25.1416.5107.1416h1a.356.356,0,0,0,.2716-.1416c.0762-.0866.1739-.1843.2717-.2826Z" style="fill: #060623"/>
      <path id="type_CompoundPathItem_19" data-name="type &lt;CompoundPathItem&gt;" d="M109.5284,43.6619V25.635a2.4329,2.4329,0,0,0-.3627-1.6059,2.4342,2.4342,0,0,0-1.6059-.3627h-3.7816a1.7641,1.7641,0,0,0-.984.4142c-.3627.3112-.9325.829-1.6059,1.5024V43.6619H94.5577V25.635a2.4347,2.4347,0,0,0-.3627-1.6059,2.4347,2.4347,0,0,0-1.6059-.3627h-3.73a1.7641,1.7641,0,0,0-.9841.4142c-.3627.3112-.9325.829-1.6058,1.5024V43.6619H79.6387V17.7612h5.957v2.1757c.2592-.2077.5181-.4663.8808-.7254.3109-.2592.6733-.57,1.036-.829a13.053,13.053,0,0,1,1.14-.6734,3.03,3.03,0,0,1,1.14-.2591h3.2635a17.1948,17.1948,0,0,1,3.16.2591,10.1707,10.1707,0,0,1,2.02.6734,5.4032,5.4032,0,0,1,1.14.829c.2591.3106.4145.57.57.7254a10.1425,10.1425,0,0,1,2.383-1.7615,5.1977,5.1977,0,0,1,2.3829-.7254h3.3153c2.7973,0,4.8694.6734,6.1644,1.9686,1.2949,1.3467,1.9686,3.4189,1.9686,6.2164V43.6619Z" style="fill: #060623"/>
      <path id="type_CompoundPathItem_20" data-name="type &lt;CompoundPathItem&gt;" d="M127.4847,17.7612V35.7881a2.2323,2.2323,0,0,0,.4143,1.5538,2.2321,2.2321,0,0,0,1.5541.4148h5.5945a1.67,1.67,0,0,0,1.0361-.4663,15.9934,15.9934,0,0,0,1.5541-1.4508V17.7612h6.6307V43.6619h-5.9573V41.4862c-.2589.2071-.518.4663-.8287.7254q-.544.3881-1.0879.777a6.5722,6.5722,0,0,1-1.14.6733,2.5232,2.5232,0,0,1-1.14.3107h-5.1286c-2.7973,0-4.8692-.6734-6.1644-2.02-1.2949-1.2952-1.9683-3.3674-1.9683-6.1644V17.7612Z" style="fill: #060623"/>
      <path id="type_CompoundPathItem_21" data-name="type &lt;CompoundPathItem&gt;" d="M159.3757,11.5447v6.2165h6.8378v5.9052h-6.8378v12.64a1.6106,1.6106,0,0,0,.0518.57,1.0881,1.0881,0,0,0,.2071.3112,2.8744,2.8744,0,0,0,.4663.3622.7074.7074,0,0,0,.57.2076h6.009v5.9052c-.3626.0521-1.0878.1036-2.2792.1556-1.1914.1036-2.5384.1551-3.9887.1551a5.8961,5.8961,0,0,1-2.7455-.5178A9.5781,9.5781,0,0,1,155.75,42.16l-1.3985-1.2432A4.4023,4.4023,0,0,1,153.1078,39a8.0616,8.0616,0,0,1-.3627-2.694v-12.64h-3.7816V17.7612h3.7816V11.5447Z" style="fill: #060623"/>
      <path id="type_CompoundPathItem_22" data-name="type &lt;CompoundPathItem&gt;" d="M193.94,43.6619h-5.9573V41.2791c-.57.57-1.1914,1.1912-1.8648,1.761a3.3337,3.3337,0,0,1-2.331.9325h-5.0766c-2.7975,0-4.8694-.6734-6.1646-2.02-1.3468-1.2952-2.02-3.4189-2.02-6.268s.6733-4.9212,2.02-6.2164c1.2952-1.2952,3.3671-1.9686,6.1646-1.9686h8.599V25.583a2.4343,2.4343,0,0,0-.3627-1.6059,2.2314,2.2314,0,0,0-1.5538-.4142h-3.8852c-2.3313,0-4.3.0515-5.8019.1035-1.5023.1036-2.59.2071-3.2118.2592V18.2789c1.0361-.2071,2.2793-.4142,3.7816-.57A45.3677,45.3677,0,0,1,180.99,17.45h4.8692c2.7975,0,4.8694.6734,6.1646,1.9686s1.9166,3.3673,1.9166,6.1644Zm-16.7838-7.9774a3.1473,3.1473,0,0,0,.4143,1.761,1.6955,1.6955,0,0,0,1.5541.6218h5.5945a1.5529,1.5529,0,0,0,.9326-.57c.3627-.3627.8807-.8289,1.6576-1.5023v-2.59h-8.1847a1.81,1.81,0,0,0-1.5541.5178A3.15,3.15,0,0,0,177.1564,35.6845Z" style="fill: #060623"/>
      <path id="type_CompoundPathItem_23" data-name="type &lt;CompoundPathItem&gt;" d="M222.5314,34.7c0,3.2638-.7251,5.6466-2.1237,7.0969-1.4505,1.4508-3.8333,2.1757-7.0969,2.1757h-5.9055a13.6409,13.6409,0,0,1-2.5384-.2586,3.6833,3.6833,0,0,1-2.02-.9326l-2.4348-2.3828a5.714,5.714,0,0,1-1.5539-4.2478V7.9187h6.6307v11.5q.466-.466,1.3985-1.2432a3.5086,3.5086,0,0,1,2.1239-.7254h4.3c3.2636,0,5.6464.7254,7.0969,2.1757,1.3986,1.4508,2.1237,3.8336,2.1237,7.0969Zm-17.0426,2.0721.518.5183a1.4349,1.4349,0,0,0,.466.3627,2.0392,2.0392,0,0,0,.6736.1036h5.6982a3.3245,3.3245,0,0,0,2.4863-.6734,3.9848,3.9848,0,0,0,.57-2.4348V26.7226a3.9527,3.9527,0,0,0-.57-2.4864,3.9523,3.9523,0,0,0-2.4863-.57h-4.7659a2.12,2.12,0,0,0-1.3985.6214c-.4663.4147-.829.7774-1.1914,1.14Z" style="fill: #060623"/>
      <path id="type_CompoundPathItem_24" data-name="type &lt;CompoundPathItem&gt;" d="M226.967,43.6619V7.9187h6.6307V43.6619Z" style="fill: #060623"/>
      <path id="type_CompoundPathItem_25" data-name="type &lt;CompoundPathItem&gt;" d="M244.6627,34.752a5.8009,5.8009,0,0,0,.1554,1.5023,1.7993,1.7993,0,0,0,.6218.9841,1.9332,1.9332,0,0,0,1.1914.4662A10.4367,10.4367,0,0,0,248.6,37.86h3.6262c2.0721,0,3.7816-.052,5.1283-.1035a27.7885,27.7885,0,0,0,3.3671-.3112v5.8537c-1.3467.1556-2.6937.3107-4.0922.4663a39.809,39.809,0,0,1-4.4032.2071h-4.973c-3.2635,0-5.6463-.7249-7.0451-2.1757-1.4506-1.3983-2.1757-3.7816-2.1757-7.0449V26.6711c0-3.2638.7251-5.6466,2.1757-7.0969,1.3988-1.3988,3.7816-2.1242,7.0451-2.1242h4.973c3.2635,0,5.6464.7254,7.0969,2.1242,1.45,1.45,2.1757,3.8331,2.1757,7.0969v5.9572c-.1556.0516-.4145.1551-.6736.2587a5.7351,5.7351,0,0,1-1.2432.2591,17.3324,17.3324,0,0,1-2.0721.2592c-.88.0515-1.9166.1035-3.16.1035h-9.6871Zm0-7.1489h10.2052v-.932a5.9876,5.9876,0,0,0-.4145-2.642c-.3109-.4662-1.0361-.6734-2.2275-.6734h-4.5067c-1.2435,0-2.0722.2072-2.4349.6734a4.1,4.1,0,0,0-.6216,2.642Z" style="fill: #060623"/>
    </g>
  </g>
</svg>
