<?xml version="1.0" encoding="UTF-8" standalone="no"?>
<svg
   xmlns:dc="http://purl.org/dc/elements/1.1/"
   xmlns:cc="http://creativecommons.org/ns#"
   xmlns:rdf="http://www.w3.org/1999/02/22-rdf-syntax-ns#"
   xmlns:svg="http://www.w3.org/2000/svg"
   xmlns="http://www.w3.org/2000/svg"
   xmlns:sodipodi="http://sodipodi.sourceforge.net/DTD/sodipodi-0.dtd"
   xmlns:inkscape="http://www.inkscape.org/namespaces/inkscape"
   width="1160"
   height="353"
   viewBox="-29 -39 306.91668 93.397914"
   version="1.1"
   id="svg6"
   sodipodi:docname="logo_nixcon.svg"
   inkscape:version="0.92.4 (5da689c313, 2019-01-14)">
  <metadata
     id="metadata12">
    <rdf:RDF>
      <cc:Work
         rdf:about="">
        <dc:format>image/svg+xml</dc:format>
        <dc:type
           rdf:resource="http://purl.org/dc/dcmitype/StillImage" />
        <dc:title>nixbuild.net</dc:title>
      </cc:Work>
    </rdf:RDF>
  </metadata>
  <defs
     id="defs10" />
  <sodipodi:namedview
     pagecolor="#ffffff"
     bordercolor="#666666"
     borderopacity="1"
     objecttolerance="10"
     gridtolerance="10"
     guidetolerance="10"
     inkscape:pageopacity="0"
     inkscape:pageshadow="2"
     inkscape:window-width="2520"
     inkscape:window-height="2050"
     id="namedview8"
     showgrid="false"
     inkscape:pagecheckerboard="true"
     inkscape:zoom="0.83052283"
     inkscape:cx="794.44461"
     inkscape:cy="177.25367"
     inkscape:window-x="20"
     inkscape:window-y="62"
     inkscape:window-maximized="0"
     inkscape:current-layer="svg6"
     fit-margin-top="50"
     fit-margin-left="50"
     fit-margin-right="50"
     fit-margin-bottom="50"
     units="px" />
  <title
     id="title2">nixbuild.net</title>
  <rect
     style="fill:#ffffff;fill-opacity:1;stroke:none;stroke-width:0.32492793"
     id="rect5549"
     width="306.91666"
     height="93.397919"
     x="-28.999994"
     y="-39" />
  <path
     d="m 46.329267,5.2411083 3.0629,-3.73135 5.42,-0.0046 3.0691,3.72623 0.7406,0.19764 3.7529,-2.1718 0.1976,-0.74058 -1.7016,-4.5175904 2.7045,-4.6971 4.7613,-0.7964 0.5412,-0.5427 -0.0058,-4.3359989 -0.5427,-0.5413 -4.7635,-0.7836 -2.7171,-4.6897 1.6894,-4.5222 -0.1996,-0.74 -3.7587,-2.1617 -0.7401,0.1997 -3.059,3.7344 -5.3951,0.01 -0.0013,-0.0054 -3.0653,-3.7294 -0.7404,-0.1983 -3.7551,2.168 -0.1984,0.7403 1.697,4.5194 -2.7092,4.6943 -4.7621,0.7916 -0.5418,0.5422 0.0015,4.3359989 0.5422,0.5418 4.7626,0.7884 2.7124,4.6924 -1.694,4.5205104 0.1989,0.74025 3.7565,2.16547 z m -0.992,-11.5236504 v -7.7999989 l 6.755,-3.9 6.755,3.9 v 7.7999989 l -6.755,3.9 z m -29.71763,46.9917011 0.99831,-5.6591 4.83466,-1.2946 3.69276,4.4028 0.6836,0.1833 3.4679,-2.0014 0.1833,-0.6836 -1.9648,-5.4002 3.5397,-3.5384 5.3994,1.9668 0.6837,-0.1831 2.0026,-3.4672 -0.183,-0.6837 -4.4016,-3.6943 1.2964,-4.83419 5.6594,-0.99631 0.5006,-0.50038 8e-4,-4.00398 -0.5004,-0.5006007 -5.659,-0.99872 -1.2942,-4.83475 4.4031,-3.69237035 0.1833,-0.6837 -2.0012,-3.46800005 -0.6836,-0.1834 -5.4002,1.9645 -3.5382,-3.54 1.9671,-5.3991989 -0.183,-0.6837 -3.467,-2.0029 -0.6838,0.183 -3.69458,4.4012989 -4.84066,-1.2984989 -0.99737,-5.6584 -0.50049,-0.5005 h -4.004 l -0.50049,0.5005 -0.9975099,5.6592 -4.83446,1.2952989 -3.69334,-4.4022989 -0.68370036,-0.1832 -3.46760004,2.0019 -0.1832,0.6837 1.9656,5.3997989 -3.5392,3.5389 -5.3996997,-1.966 -0.6837,0.1832 -2.0021,3.46750005 0.1831,0.6837 4.4020997,3.69363035 -1.2957,4.83437 -5.6591997,0.99711 -0.5006,0.5004607 -3e-4,4.00398 0.5005,0.50052 5.6590997,0.99791 1.295,4.83457 -4.4025997,3.69305 -0.1832,0.6837 2.0016,3.4677 0.6837,0.1833 5.3999997,-1.9653 3.5386,3.5395 -1.9663,5.3995 0.1831,0.6837 3.46730004,2.0024 0.68370036,-0.1831 3.69401,-4.4018 4.83429,1.296 0.9967199,5.6593 0.50041,0.5006 4.00398,6e-4 z M 5.6461771,25.264559 -1.8288333,12.317459 5.6461771,-0.62964205 H 20.596157 l 7.47501,12.94710105 -7.47501,12.9471 z"
     id="path4"
     style="fill:#000000;fill-opacity:1;stroke:none"
     inkscape:connector-curvature="0" />
  <flowRoot
     xml:space="preserve"
     id="flowRoot4520"
     style="font-style:normal;font-weight:normal;font-size:40px;line-height:1.25;font-family:sans-serif;letter-spacing:0px;word-spacing:0px;fill:#000000;fill-opacity:1;stroke:none"
     transform="matrix(0.26458333,0,0,0.26458333,-15.878833,-26.723349)"><flowRegion
       id="flowRegion4522"><rect
         id="rect4524"
         width="361.55344"
         height="108.90164"
         x="369.17657"
         y="40.293606" /></flowRegion><flowPara
       id="flowPara4526"></flowPara></flowRoot>  <g
     style="font-size:12px;fill:#000000;fill-opacity:1;fill-rule:evenodd;stroke:none;stroke-width:0.25000001mm;stroke-linecap:round"
     font-size="9pt"
     id="svgGroup"
     transform="matrix(0.38593583,0,0,0.38593583,83.992923,-6.9627047)">
    <path
       id="0"
       d="m 0,22.168 h 12.988 l 0.391,5.225 q 4.645,-6.146 12.119,-6.201 a 18.38,18.38 0 0 1 0.137,-0.001 13.584,13.584 0 0 1 6.77,1.596 q 5.507,3.101 6.834,12.233 a 42.792,42.792 0 0 1 0.409,5.263 V 75 H 25.781 V 41.309 a 23.831,23.831 0 0 0 -0.1,-2.273 Q 25.414,36.262 24.438,34.79 a 4.202,4.202 0 0 0 -2.229,-1.666 q -1.061,-0.36 -2.482,-0.36 -3.76,0 -5.86,3.857 V 75 H 0 Z"
       inkscape:connector-curvature="0"
       style="vector-effect:non-scaling-stroke;fill:#000000;fill-opacity:1;stroke:none" />
    <path
       id="1"
       d="M 64.063,22.168 V 75 H 50.195 V 22.168 Z M 49.926,5.986 a 8.267,8.267 0 0 0 -0.365,2.51 9.487,9.487 0 0 0 0.018,0.592 7.16,7.16 0 0 0 2.008,4.682 6.603,6.603 0 0 0 3.141,1.816 9.248,9.248 0 0 0 2.352,0.283 9.732,9.732 0 0 0 1.788,-0.157 6.72,6.72 0 0 0 3.705,-1.942 6.985,6.985 0 0 0 1.611,-2.618 A 8.165,8.165 0 0 0 64.6,8.496 9.395,9.395 0 0 0 64.558,7.601 6.923,6.923 0 0 0 62.549,3.223 6.732,6.732 0 0 0 59.451,1.46 9.247,9.247 0 0 0 57.08,1.172 q -3.418,0 -5.469,2.051 a 6.736,6.736 0 0 0 -1.685,2.763 z"
       inkscape:connector-curvature="0"
       style="vector-effect:non-scaling-stroke;fill:#000000;fill-opacity:1;stroke:none" />
    <path
       id="2"
       d="m 86.523,22.168 5.909,15.674 6.152,-15.674 h 14.648 l -12.06,25.83 12.5,27.002 H 98.975 L 92.48,58.447 86.035,75 H 71.289 l 12.5,-27.002 -11.963,-25.83 z"
       inkscape:connector-curvature="0"
       style="vector-effect:non-scaling-stroke;fill:#000000;fill-opacity:1;stroke:none" />
    <path
       id="3"
       d="m 161.23,46.24 v 4.053 q 0,11.841 -3.487,18.223 a 17.669,17.669 0 0 1 -0.614,1.04 13.41,13.41 0 0 1 -9.76,6.195 20.809,20.809 0 0 1 -3.131,0.226 12.304,12.304 0 0 1 -9.599,-4.334 17.349,17.349 0 0 1 -1.436,-1.868 L 132.764,75 H 120.02 V 0 h 13.818 v 26.465 a 13.43,13.43 0 0 1 3.739,-3.511 q 2.776,-1.708 6.333,-1.761 a 15.356,15.356 0 0 1 0.231,-0.002 19.06,19.06 0 0 1 5.149,0.654 13.129,13.129 0 0 1 7.741,5.718 22.07,22.07 0 0 1 2.473,5.48 q 1.665,5.411 1.726,13.197 z m -13.818,5.615 v -5.029 a 67.978,67.978 0 0 0 -0.088,-3.612 q -0.279,-5.218 -1.438,-7.437 a 5.507,5.507 0 0 0 -0.085,-0.157 5.364,5.364 0 0 0 -3.763,-2.678 9.03,9.03 0 0 0 -1.852,-0.178 q -3.827,0 -5.837,3.067 a 9.203,9.203 0 0 0 -0.511,0.888 v 24.072 q 1.57,3.14 5.097,3.623 a 9.932,9.932 0 0 0 1.348,0.088 q 2.601,0 4.156,-1.119 a 4.817,4.817 0 0 0 1.337,-1.469 q 1.538,-2.588 1.636,-10.059 z"
       inkscape:connector-curvature="0"
       style="vector-effect:non-scaling-stroke;fill:#000000;fill-opacity:1;stroke:none" />
    <path
       id="4"
       d="m 195.898,75 -0.39,-4.834 q -4.297,5.811 -11.524,5.811 a 16.776,16.776 0 0 1 -4.583,-0.591 11.922,11.922 0 0 1 -6.452,-4.414 q -2.774,-3.693 -3.501,-9.873 a 40.319,40.319 0 0 1 -0.259,-4.703 V 22.168 h 13.819 v 34.57 a 17.552,17.552 0 0 0 0.226,2.72 q 0.854,4.995 4.901,4.995 a 8.495,8.495 0 0 0 2.914,-0.474 q 2.536,-0.92 3.922,-3.627 V 22.168 h 13.916 V 75 Z"
       inkscape:connector-curvature="0"
       style="vector-effect:non-scaling-stroke;fill:#000000;fill-opacity:1;stroke:none" />
    <path
       id="5"
       d="M 233.252,22.168 V 75 H 219.385 V 22.168 Z M 219.115,5.986 a 8.267,8.267 0 0 0 -0.365,2.51 9.487,9.487 0 0 0 0.018,0.592 7.16,7.16 0 0 0 2.008,4.682 6.603,6.603 0 0 0 3.142,1.816 9.248,9.248 0 0 0 2.352,0.283 9.732,9.732 0 0 0 1.788,-0.157 6.72,6.72 0 0 0 3.705,-1.942 6.985,6.985 0 0 0 1.61,-2.618 8.165,8.165 0 0 0 0.416,-2.656 9.395,9.395 0 0 0 -0.042,-0.895 6.923,6.923 0 0 0 -2.009,-4.378 6.732,6.732 0 0 0 -3.097,-1.763 9.247,9.247 0 0 0 -2.371,-0.288 q -3.418,0 -5.469,2.051 a 6.736,6.736 0 0 0 -1.686,2.763 z"
       inkscape:connector-curvature="0"
       style="vector-effect:non-scaling-stroke;fill:#000000;fill-opacity:1;stroke:none" />
    <path
       id="6"
       d="M 258.447,0 V 75 H 244.58 V 0 Z"
       inkscape:connector-curvature="0"
       style="vector-effect:non-scaling-stroke;fill:#000000;fill-opacity:1;stroke:none" />
    <path
       id="7"
       d="m 267.285,50.977 v -4.004 a 61.687,61.687 0 0 1 0.348,-6.785 q 0.807,-7.271 3.488,-11.731 a 17.025,17.025 0 0 1 0.559,-0.869 14.106,14.106 0 0 1 10.266,-6.24 19.807,19.807 0 0 1 2.527,-0.157 12.015,12.015 0 0 1 9.111,4.038 16.873,16.873 0 0 1 1.045,1.236 V 0 h 13.916 v 75 h -12.549 l -0.635,-5.371 a 16.594,16.594 0 0 1 -3.05,3.482 11.853,11.853 0 0 1 -7.887,2.866 17.21,17.21 0 0 1 -5.566,-0.856 13.926,13.926 0 0 1 -7.105,-5.492 21.392,21.392 0 0 1 -2.677,-5.599 q -1.729,-5.36 -1.791,-13.046 a 65.638,65.638 0 0 1 0,-0.007 z m 13.867,-4.2 v 3.662 q 0,6.005 0.981,9.226 a 9.355,9.355 0 0 0 0.679,1.688 5.528,5.528 0 0 0 3.941,2.941 8.354,8.354 0 0 0 1.675,0.159 7.216,7.216 0 0 0 2.976,-0.593 q 1.97,-0.88 3.225,-3.069 V 36.67 a 8.324,8.324 0 0 0 -1.545,-2.122 q -1.8,-1.749 -4.5,-1.784 a 8.53,8.53 0 0 0 -0.107,0 q -3.789,0 -5.549,3.044 a 7.564,7.564 0 0 0 -0.018,0.032 q -1.353,2.367 -1.664,7.569 a 56.536,56.536 0 0 0 -0.094,3.368 z"
       inkscape:connector-curvature="0"
       style="vector-effect:non-scaling-stroke;fill:#000000;fill-opacity:1;stroke:none" />
    <path
       id="8"
       d="m 320.273,65.222 a 8.111,8.111 0 0 0 -0.449,2.747 9.495,9.495 0 0 0 0.02,0.62 6.97,6.97 0 0 0 2.251,4.849 7.608,7.608 0 0 0 2.979,1.711 9.401,9.401 0 0 0 2.758,0.388 10.621,10.621 0 0 0 0.837,-0.032 8.094,8.094 0 0 0 4.9,-2.043 6.68,6.68 0 0 0 1.937,-2.938 8.159,8.159 0 0 0 0.383,-2.555 q 0,-3.369 -2.295,-5.493 a 7.698,7.698 0 0 0 -2.953,-1.718 9.318,9.318 0 0 0 -2.809,-0.406 10.467,10.467 0 0 0 -1.546,0.11 7.532,7.532 0 0 0 -4.24,2.038 7.049,7.049 0 0 0 -1.773,2.722 z"
       inkscape:connector-curvature="0"
       style="vector-effect:non-scaling-stroke;fill:#000000;fill-opacity:1;stroke:none" />
    <path
       id="9"
       d="m 347.461,22.168 h 12.988 l 0.391,5.225 q 4.645,-6.146 12.119,-6.201 a 18.38,18.38 0 0 1 0.137,-0.001 13.584,13.584 0 0 1 6.77,1.596 q 5.507,3.101 6.834,12.233 a 42.792,42.792 0 0 1 0.409,5.263 V 75 H 373.242 V 41.309 a 23.831,23.831 0 0 0 -0.1,-2.273 q -0.267,-2.774 -1.243,-4.246 a 4.202,4.202 0 0 0 -2.229,-1.666 q -1.061,-0.36 -2.482,-0.36 -3.76,0 -5.86,3.857 V 75 h -13.867 z"
       inkscape:connector-curvature="0"
       style="vector-effect:non-scaling-stroke;fill:#000000;fill-opacity:1;stroke:none" />
    <path
       id="10"
       d="m 395.801,51.465 v -4.199 a 45.896,45.896 0 0 1 0.561,-7.422 q 0.632,-3.853 1.978,-6.961 a 21.175,21.175 0 0 1 2.93,-4.904 17.771,17.771 0 0 1 11.399,-6.457 26.475,26.475 0 0 1 4.274,-0.331 q 9.961,0 14.991,6.372 a 20.674,20.674 0 0 1 3.272,6.189 q 0.982,2.878 1.445,6.401 a 51.459,51.459 0 0 1 0.41,6.283 v 6.787 H 409.57 a 25.53,25.53 0 0 0 0.323,3.046 q 0.572,3.32 2.035,5.237 a 7.258,7.258 0 0 0 0.23,0.286 7.201,7.201 0 0 0 3.457,2.219 q 1.189,0.368 2.633,0.46 a 15.557,15.557 0 0 0 0.99,0.031 16.672,16.672 0 0 0 6.27,-1.147 15.427,15.427 0 0 0 5.303,-3.589 l 5.419,8.349 a 15.787,15.787 0 0 1 -3.816,3.696 21.881,21.881 0 0 1 -3.557,1.993 25.075,25.075 0 0 1 -9.618,2.159 29.037,29.037 0 0 1 -0.88,0.014 28.65,28.65 0 0 1 -6.905,-0.785 19.365,19.365 0 0 1 -9.696,-5.563 q -5.214,-5.556 -5.864,-15.301 a 43.005,43.005 0 0 1 -0.093,-2.863 z m 13.867,-7.91 h 13.818 v -1.27 a 25.515,25.515 0 0 0 -0.178,-2.61 q -0.354,-2.851 -1.384,-4.568 -1.437,-2.394 -4.941,-2.44 a 10.517,10.517 0 0 0 -0.137,-0.001 7.913,7.913 0 0 0 -2.065,0.253 5.257,5.257 0 0 0 -3.184,2.335 q -1.636,2.588 -1.929,8.301 z"
       inkscape:connector-curvature="0"
       style="vector-effect:non-scaling-stroke;fill:#000000;fill-opacity:1;stroke:none" />
    <path
       id="11"
       d="m 447.119,9.18 h 13.819 v 12.988 h 7.08 v 10.4 h -7.08 v 26.221 a 17.956,17.956 0 0 0 0.052,1.43 q 0.11,1.368 0.449,2.211 a 3.02,3.02 0 0 0 0.353,0.656 q 0.819,1.123 3.094,1.17 a 9.764,9.764 0 0 0 0.202,0.002 19.313,19.313 0 0 0 1.29,-0.041 q 0.61,-0.041 1.131,-0.123 a 8.226,8.226 0 0 0 0.85,-0.178 l -0.097,10.742 a 20.963,20.963 0 0 1 -6.1,1.272 24.548,24.548 0 0 1 -1.517,0.047 16.621,16.621 0 0 1 -5.685,-0.892 q -7.73,-2.807 -7.841,-14.44 V 32.568 h -6.103 v -10.4 h 6.103 z"
       inkscape:connector-curvature="0"
       style="vector-effect:non-scaling-stroke;fill:#000000;fill-opacity:1;stroke:none" />
  </g>
</svg>
